<svg xmlns="http://www.w3.org/2000/svg" width="800" height="800" viewBox="0 0 975.263 975.264" xml:space="preserve"><path d="M667.963 311.132c-84.7 0-164.601-11.2-225.1-31.5-40.1-13.5-65.8-28.9-82-44.3v269.501c4.2-7.4 9.4-13.701 15.7-19 17.8-14.801 39.3-16.801 58.1-16.801 5.7 0 11.4.2 16.9.4s11.2.4 16.7.4c7.2 0 13.1-.301 18.399-1.101 1.601-.2 3.2-.3 4.8-.3 14.399 0 27.3 8.7 32.699 22 4.2 10.4 10.4 20.299 16.9 30.799 10.1 16.301 20.6 33.201 23.3 52.9 3.4 24.801-6.6 47.301-29.5 67-.5.4-1 .801-1.5 1.301-.3.299-.6.5-1 .799.3 0 .601-.1.9-.1 5.399-.799 10.7-1.1 15.6-1.1 24.8 0 44.4 9.5 58 28.1 10.4 14.201 15.5 31.301 20.5 47.701 3.601 11.898 6.9 23.1 11.9 33.1 7.2 14.4 3.7 31.9-8.5 42.4-.4.398-.8.799-1.3 1.1 12.6.5 25.5.799 38.6.799 169.6 0 307.1-46.1 307.1-103v-72.1c-57.399 70.6-201.8 80.701-265.399 81.701-17 .199-30.9-13.5-30.9-30.5V430.632c0-16.2 12.601-29.601 28.8-30.5 64.7-3.601 219.7-17.9 267.601-72.1v-92.8c-16.101 15.4-41.9 30.8-82 44.3-60.7 20.4-140.7 31.6-225.3 31.6zm0-308.1c-152.9 0-279.7 37.5-303.2 86.6 3.2 23.3 34.1 47.9 84.1 66.7 41.5 15.6 92.5 26.2 147.799 31.1 23.101 2 46.9 3.1 71.2 3.1s48.101-1.1 71.2-3.1c55.4-4.9 106.3-15.5 147.8-31.1 50-18.8 81-43.4 84.101-66.7-23.3-49.1-150.1-86.6-303-86.6z"/><path d="M895.763 179.832c-7.2 2.7-14.7 5.3-22.5 7.7-58.101 18.2-130 28.1-205.3 28.1-75.301 0-147.2-9.9-205.3-28.1-7.699-2.4-15.3-5-22.5-7.7-35.5-13.3-62.3-29.4-79.3-47.1v50.4c0 1.5.101 3 .3 4.4 6.9 54.9 141.6 98.6 306.8 98.6 165.199 0 299.899-43.8 306.8-98.6.2-1.5.3-2.9.3-4.4v-50.4c-17 17.7-43.8 33.7-79.3 47.1zm-740.099 304.6c12 6.2 26.7 1.4 32.9-10.6s1.4-26.7-10.6-32.9-26.7-1.4-32.9 10.6c-6.101 12-1.4 26.7 10.6 32.9zm-106.201 2.401c10.7-.5 54.5-5.7 73.5-17.301 1.8-1.1 3-2.6 3.7-4.6 1.5-4.4-.7-9.2-5.1-10.9l-56.2-21.6c-.1 0-.4-.2-.3-.6.1-.4.4-.301.5-.301l58.7 13c4.3 1 8.7-1.5 10.1-5.699.7-2.101.6-4.301-.4-6.4-9.4-20.1-43-48.8-51.6-55.1-26.7-19.5-42.4-3.7-59.1 13.1-6.3 6.3-12.8 12.8-20.3 18.1-1.2.9-2.1 2.101-2.6 3.5-.5 1.601-.5 3.301.1 4.801 3.3 8.6 5.1 17.6 6.9 26.3 4.7 23.2 9.1 45.098 42.1 43.7zm97.301 97.6c.1-.301.2-.6.3-1 1.6-4.701 5.4-17.701 8.4-33 2.4-12.201 4.8-29.1 2.9-40.6-.5-3.301-2.8-5.9-6-6.9s-6.6-.1-8.9 2.4l-41.1 43.799c-.1.1-.3.301-.5.1 0 0-.3-.199-.3-.5 0-.1 0-.1.1-.199l34.2-49.4c.5-.699.8-1.4 1.1-2.199.9-2.701.4-5.701-1.3-8-1.7-2.3-4.4-3.5-7.3-3.401-22.2 1.101-61.4 21.401-70.5 27.1-9.4 5.801-15.2 12.201-17.7 19.6-4.2 12.4 1.5 25.801 7.5 40 3.5 8.201 7.1 16.602 9.2 25.602.7 3.1 3.5 5.398 6.7 5.398 9.2.201 18.2 1.9 26.9 3.602 23.3 4.498 45.2 8.697 56.3-22.402zm125.5-156.501-54.7 25c-2.2 1-3.8 2.8-4.6 5.1-1.4 4.101.4 8.5 4.1 10.4 19.6 10.4 63.7 13 74.4 12.8 18.8-.3 29.5-7.3 34.7-22.7 2.301-6.899 3.4-14.899 4.601-23.3 1.2-8.8 2.5-17.899 5.2-26.7 1-3.1-.301-6.399-3-8.1-7.801-4.8-14.7-10.9-21.301-16.9-17.7-15.7-34.299-30.5-59.799-9.5-8.3 6.8-40.1 37.4-48.2 58.1-1.2 3.2-.5 6.7 1.8 9.1 2.2 2.3 5.6 3.3 8.7 2.4l57.8-16.601c.3-.1.4 0 .4.101.1.1.2.399.1.5.098.1-.002.201-.201.3zm-78.5-126.1c-7.9-4-16.2-8.1-23.6-13.5-2.6-1.9-6.2-1.8-8.7.2-7.1 5.8-15.1 10.4-22.8 14.8-13.4 7.6-26.1 14.8-30.3 27.3-2.5 7.4-1.8 16 2.1 26.3 3.8 10 22.6 50 39.5 64.3 2.2 1.9 5.1 2.5 7.9 1.7 2.8-.8 5-2.9 5.9-5.6.3-.801.4-1.601.5-2.4l2.9-60v-.2c.1-.3.5-.2.5-.2.3 0 .3.2.4.4l6.1 59.8c.3 3.3 2.5 6.101 5.6 7.3 3.1 1.2 6.5.5 8.9-1.8 8.5-8 16.9-22.899 22.4-34.1 6.9-13.9 11.8-26.6 13.4-31.3.1-.4.2-.7.3-1 10.099-31.5-9.901-41.5-31-52zm68.199 295.399c.2-.1.3-.199.4-.199.2 0 .3.1.4.199l62.5 60.801c2.399 2.4 5.6 3.6 8.8 3.6 2.9 0 5.7-1 8.1-2.9 2.5-2 4-4.898 4.4-8.1 3.7-32-16-92.9-21.9-107.299-11.199-27.301-27.399-34.9-45.899-34.9-11.6 0-24.2 3-37 6.1-12.5 3-25.5 6.1-38.8 7-2.2.1-4.2.9-5.9 2.301-1.8 1.5-3.1 3.699-3.5 6-2.4 13.1-7.1 25.6-11.5 37.699-11.9 32.1-23.1 62.5 18.7 85.801 13.6 7.6 71.7 34.398 103.899 34.5h.101c3 0 5.7-1 7.899-2.801 5.2-4.301 6.101-12 2-17.4l-52.8-69.4c-.199-.3-.4-.601.1-1.002zm136.001 180.602c-2.4-2.102-5.301-3.102-8.2-3.102-2.9 0-5.7 1-8.101 2.9-2.699 2.201-4.3 5.4-4.5 8.9l-5.399 87c0 .301-.101.4-.2.5s-.3.1-.5.1c-.1 0-.2 0-.3-.1-.101-.1-.3-.1-.3-.5l-7.601-86.9c-.399-4.699-3.399-8.699-7.7-10.5-1.6-.699-3.199-1-4.899-1-3 0-6 1.1-8.4 3.301-23.8 21.799-48.7 80.699-53.7 95.5-15.3 45.4 13.5 60.299 43.9 76.1 11.4 5.9 23.3 12.1 33.9 20.1 1.8 1.4 4 2.1 6.199 2.1 2.301 0 4.5-.699 6.4-2.199 10.4-8.301 22.1-14.699 33.4-21 10.8-5.9 21-11.6 29.199-18.301 18.101-15.1 22.101-33.199 12.801-58.799-5.3-14.6-31.8-72.901-55.999-94.1zm-82.401-26.4c-2.4-2.801-5.9-4.301-9.4-4.301-1.1 0-2.199.1-3.3.4l-84.2 22.9h-.3c-.2 0-.3-.1-.5-.301 0 0-.3-.5.1-.799.1-.102.1-.102.2-.102l79.8-35.1c1.1-.5 2.1-1.1 3-1.9 3.199-2.6 4.8-6.699 4.399-10.898-.399-4.201-2.7-7.701-6.399-9.701-28.101-15.4-91.4-20.199-107.4-20.199h-.3c-16 0-28 3.6-36.8 10.799-14.6 12.102-17.8 33-21.2 55.201-1.9 12.699-3.9 25.9-8.2 38.6-1.5 4.4.2 9.301 4.2 11.9 11.2 7.199 21.1 16.199 30.6 24.9 16.5 15.1 32.3 29.6 51.7 29.6 10.4 0 21.8-4.201 34.8-14.6.4-.301.8-.602 1.2-1 5.6-4.602 20.1-17.701 35.4-34.301 12.2-13.199 28.1-32.301 34.5-48 2.2-4.499 1.301-9.499-1.9-13.098zm94.1-92.401c-2.1 4.4-1.6 9.4 1.4 13.199 2.4 3.102 6 4.801 9.8 4.801.8 0 1.7-.1 2.601-.301 16.6-3.398 38.3-15.5 53.5-25.1 19.099-12 34.699-23.9 40.299-28.5.399-.4.8-.699 1.2-1 36.399-31.199 19.3-58.699 1.3-87.799-6.8-11-13.8-22.301-18.8-34.602-1.601-3.898-5.4-6.398-9.5-6.398-.5 0-.9 0-1.4.1-7.299 1-14.599 1.299-21.799 1.299-5.9 0-11.8-.199-17.601-.398-5.399-.201-10.8-.4-16-.4-16.199 0-31 1.799-42.1 11-8.7 7.199-14.4 18.4-17.4 34.1-2.899 15.301-10.1 78.9-.1 109.5 1.3 4 4.4 7 8.4 8.1 1.199.301 2.399.5 3.6.5 2.9 0 5.7-1 8-2.9.9-.799 1.7-1.6 2.4-2.6l49.199-72c.101-.1.101-.199.2-.199.101-.1.2-.1.3-.1.301 0 .5.199.5.199.4.301.301.5.101.801l-38.1 78.698zm193.6 66.199c-9-29.799-17.5-58.1-54.5-58.1-3.7 0-7.8.301-12.101.9-15.399 2.1-78 15.801-103.799 35.1-4 3-5.7 7.801-4.7 12.6 1 4.602 4.4 8.301 8.9 9.5l84 23.5c.4.102.4.301.5.4.1.301 0 .6-.2.801 0 0-.1.1-.3.1h-.2l-86.5-10.801c-.5-.1-1.1-.1-1.6-.1-2.9 0-5.7 1-8 2.9-3.4 2.801-5 7.1-4.5 11.301.2 1.6.7 3.299 1.6 4.799 16.3 27.801 68.799 64.5 82.1 72.5 11.3 6.701 21.399 10 30.899 10 10.3 0 19.8-3.9 29.2-11.699 8.2-6.801 15.6-15.801 23.4-25.301 3-3.6 6-7.299 9.1-10.9 5.5-6.299 11.2-12.5 17.7-18.1 3.6-3.1 4.6-8.1 2.5-12.299-5.999-11.999-9.799-24.8-13.499-37.101zm-242.4-47.798c-5.2.5-10.399 2.1-15.2 5-16.8 10.1-22.1 31.9-12 48.699 6.7 11 18.4 17.1 30.301 17.1 6.3 0 12.6-1.699 18.3-5.1 3-1.799 5.7-4.1 7.899-6.6 10.2-11.301 12.301-28.4 4-42.1-6.699-11-18.3-17.1-30.3-17.1-.8-.101-1.899.001-3 .101z"/></svg>